<!DOCTYPE svg PUBLIC "-//W3C//DTD SVG 20010904//EN" "http://www.w3.org/TR/2001/REC-SVG-20010904/DTD/svg10.dtd">
<svg version="1.0" xmlns="http://www.w3.org/2000/svg" width="1200px" height="600px" viewBox="0 0 12000 6000" preserveAspectRatio="xMidYMid meet">
<g id="layer101" fill="#00b5ff" stroke="none">
<path d="M7570 5110 c-176 -29 -312 -121 -374 -254 -50 -108 -51 -122 -51 -727 0 -488 2 -568 15 -584 64 -77 297 -71 338 8 9 16 13 182 14 567 3 530 4 546 24 585 31 59 88 88 174 87 85 0 139 -27 173 -87 9 -14 13 -183 17 -582 l5 -561 23 -25 c29 -31 83 -47 157 -47 78 0 131 18 161 53 l24 29 0 551 c0 601 -3 639 -57 745 -53 105 -165 191 -298 227 -71 19 -267 28 -345 15z"/>
<path d="M245 5095 c-22 -8 -50 -26 -62 -40 l-23 -26 0 -732 c0 -813 -4 -755 67 -791 45 -23 605 -23 701 -1 170 40 262 141 281 308 18 161 -22 303 -106 377 l-44 38 54 36 c63 42 102 94 123 162 21 72 19 301 -4 386 -45 159 -148 251 -319 284 -105 20 -611 19 -668 -1z m565 -333 c19 -9 43 -31 53 -49 24 -42 33 -157 18 -220 -25 -98 -88 -127 -261 -121 l-95 3 -3 203 -2 202 127 0 c102 0 135 -4 163 -18z m-7 -700 c32 -30 52 -100 42 -148 -4 -23 -20 -51 -40 -71 l-33 -33 -126 0 -126 0 0 141 0 141 129 -3 c119 -4 131 -6 154 -27z"/>
<path d="M3845 5094 c-22 -8 -50 -26 -62 -40 l-23 -25 0 -735 c0 -731 0 -734 21 -755 34 -34 84 -49 161 -49 95 1 153 25 173 74 13 30 15 130 15 626 l0 590 248 0 c176 0 254 4 271 13 44 21 66 74 66 152 0 78 -22 131 -66 152 -37 19 -750 17 -804 -3z"/>
<path d="M10916 5095 c-22 -8 -51 -25 -65 -40 l-26 -25 -3 -715 c-3 -801 -6 -767 67 -804 39 -20 56 -21 479 -21 l439 0 26 25 c24 25 47 91 47 137 0 45 -22 102 -50 130 l-28 28 -306 0 -306 0 0 170 0 170 174 0 c163 0 175 1 201 22 53 42 69 122 39 198 -26 64 -47 70 -244 70 l-170 0 0 170 0 170 290 0 c330 0 344 3 376 66 24 50 25 156 1 201 -33 63 -33 63 -489 63 -327 -1 -421 -4 -452 -15z"/>
</g>
<g id="layer102" fill="#ffffff" stroke="none">
<path d="M7837 2490 c-189 -34 -322 -133 -377 -278 -37 -97 -42 -174 -37 -579 4 -413 5 -420 57 -523 31 -60 110 -141 169 -174 116 -63 341 -86 491 -50 163 38 303 146 350 271 30 77 34 225 7 266 -38 58 -149 82 -248 53 -75 -21 -91 -42 -100 -127 -13 -114 -48 -149 -157 -156 -90 -6 -147 22 -179 87 -23 43 -23 51 -23 404 0 342 1 362 20 402 24 49 52 70 112 83 132 29 228 -54 228 -196 l0 -63 -74 0 c-65 0 -78 -3 -105 -25 -76 -64 -60 -223 26 -256 13 -5 114 -9 225 -9 219 0 252 7 279 57 19 36 19 385 0 463 -56 227 -225 347 -501 355 -63 2 -137 0 -163 -5z"/>
<path d="M285 2481 c-16 -4 -45 -15 -63 -25 -65 -34 -63 -13 -60 -779 3 -673 4 -693 23 -726 32 -54 93 -81 184 -81 97 0 151 25 202 93 19 26 83 132 142 235 59 103 111 193 116 200 6 10 44 -48 125 -190 64 -111 132 -224 151 -249 47 -66 100 -89 201 -89 100 0 148 24 182 90 l22 44 0 699 0 699 -33 33 c-31 31 -100 55 -161 55 -49 0 -125 -31 -150 -61 l-26 -31 0 -396 0 -397 -91 155 c-50 85 -105 169 -123 186 -44 42 -93 50 -150 26 -41 -19 -48 -28 -142 -201 l-99 -182 -3 409 -2 409 -26 27 c-45 44 -143 65 -219 47z"/>
<path d="M2225 2481 c-56 -14 -96 -42 -111 -77 -22 -53 -16 -1452 6 -1479 58 -70 258 -74 325 -7 l25 25 0 732 0 732 -26 27 c-45 44 -143 65 -219 47z"/>
<path d="M3156 2475 c-22 -8 -51 -25 -65 -40 l-26 -25 -3 -718 c-3 -802 -6 -765 68 -804 31 -16 62 -18 316 -18 302 0 374 9 475 61 64 32 152 121 183 185 53 108 58 159 54 599 -4 385 -5 402 -26 460 -28 75 -83 156 -132 195 -61 48 -158 88 -254 105 -119 20 -533 21 -590 0z m560 -341 c15 -11 37 -33 48 -48 20 -26 21 -42 24 -394 2 -267 -1 -374 -9 -397 -32 -81 -85 -104 -236 -105 l-113 0 0 486 0 486 129 -4 c112 -3 133 -6 157 -24z"/>
<path d="M4830 2471 c-98 -35 -90 38 -90 -795 l0 -732 28 -26 c38 -35 83 -48 170 -48 90 0 147 23 186 75 15 19 104 182 198 362 94 180 175 332 179 338 5 5 9 -148 9 -342 l0 -351 24 -29 c30 -35 83 -53 161 -53 78 0 131 18 161 53 l24 29 0 725 0 725 -33 33 c-31 31 -100 55 -157 55 -60 0 -127 -24 -160 -59 -20 -20 -117 -186 -225 -384 l-190 -347 -5 347 c-4 264 -8 354 -18 371 -33 58 -170 86 -262 53z"/>
<path d="M6570 2471 c-98 -35 -90 38 -90 -797 0 -731 0 -734 21 -755 34 -34 84 -49 161 -49 95 1 153 25 173 74 22 53 22 1409 0 1462 -28 68 -163 101 -265 65z"/>
<path d="M9170 2471 c-98 -35 -90 38 -90 -797 0 -731 0 -734 21 -755 34 -34 84 -49 161 -49 51 0 86 6 116 20 69 31 72 47 72 350 l0 260 200 0 200 0 0 -274 0 -274 24 -29 c30 -35 83 -53 161 -53 78 0 131 18 161 53 l24 29 0 725 0 725 -33 33 c-72 72 -249 68 -312 -6 l-25 -31 0 -304 0 -304 -200 0 -200 0 0 290 c0 339 -2 349 -75 381 -68 30 -139 33 -205 10z"/>
<path d="M11235 2481 c-16 -4 -45 -15 -62 -24 -65 -34 -63 -15 -63 -667 l0 -590 -150 0 c-172 0 -197 -7 -225 -67 -38 -79 -28 -188 23 -238 l25 -25 511 0 c567 0 543 -3 572 66 18 43 18 145 0 188 -7 18 -26 42 -41 54 -26 20 -39 22 -186 22 l-159 0 0 595 c0 427 -3 601 -12 619 -22 51 -154 88 -233 67z"/>
</g>


</svg>