<!DOCTYPE svg PUBLIC "-//W3C//DTD SVG 20010904//EN" "http://www.w3.org/TR/2001/REC-SVG-20010904/DTD/svg10.dtd">
<svg version="1.0" xmlns="http://www.w3.org/2000/svg" width="496px" height="242px" viewBox="0 0 4960 2420" preserveAspectRatio="xMidYMid meet">
<g id="layer101" fill="#ffffff" stroke="none">
 <path d="M3080 1927 c-50 -16 -126 -93 -139 -142 -6 -22 -11 -123 -11 -227 l0 -188 80 0 80 0 0 175 c0 210 7 237 69 256 32 9 46 9 71 -1 54 -22 60 -49 60 -250 l0 -180 80 0 80 0 0 186 c0 118 -5 202 -12 228 -16 54 -90 128 -144 144 -50 15 -166 14 -214 -1z"/>
 <path d="M20 1650 l0 -280 160 0 c87 0 182 5 211 11 122 26 168 140 92 230 -22 26 -25 33 -13 37 28 10 69 63 76 100 15 78 -35 147 -125 172 -20 5 -118 10 -218 10 l-183 0 0 -280z m341 150 c22 -12 26 -59 7 -78 -8 -8 -45 -12 -100 -12 l-88 0 0 50 0 50 81 0 c44 0 89 -5 100 -10z m-19 -227 c48 -44 4 -83 -94 -83 l-68 0 0 50 0 50 72 0 c52 0 76 -4 90 -17z"/>
 <path d="M1540 1650 l0 -280 80 0 80 0 0 215 0 214 133 3 132 3 3 63 3 62 -216 0 -215 0 0 -280z"/>
 <path d="M4470 1650 l0 -280 218 2 217 3 0 60 0 60 -137 3 -138 3 0 44 0 45 120 0 120 0 0 60 0 60 -120 0 -120 0 0 45 0 44 143 3 142 3 3 63 3 62 -226 0 -225 0 0 -280z"/>
 <path d="M3221 969 c-71 -28 -142 -99 -164 -164 -56 -164 29 -334 190 -381 110 -32 268 0 328 66 18 20 18 21 -25 65 -24 25 -48 45 -52 45 -5 0 -22 -10 -37 -21 -65 -48 -170 -40 -220 16 -57 65 -54 155 7 216 43 42 93 55 152 39 l40 -11 0 -74 0 -75 70 0 71 0 -3 118 -3 117 -58 29 c-48 24 -73 29 -150 33 -77 3 -101 0 -146 -18z"/>
 <path d="M10 700 l0 -281 67 3 66 3 96 157 95 157 94 -160 94 -160 67 3 66 3 3 278 2 277 -75 0 -74 0 -3 -142 -3 -143 -70 118 c-69 117 -70 118 -105 115 -32 -3 -39 -10 -102 -113 l-68 -110 0 138 0 137 -75 0 -75 0 0 -280z"/>
 <path d="M860 700 l0 -280 80 0 80 0 0 280 0 280 -80 0 -80 0 0 -280z"/>
 <path d="M1220 700 l0 -282 183 4 c176 3 184 4 239 31 211 103 208 403 -4 498 -48 22 -69 24 -235 27 l-183 4 0 -282z m337 133 c49 -23 73 -66 73 -131 0 -105 -56 -151 -182 -152 l-68 0 0 150 0 150 71 0 c46 0 84 -6 106 -17z"/>
 <path d="M1970 700 l0 -280 65 0 65 0 117 141 118 141 3 -141 3 -141 79 0 80 0 0 280 0 280 -67 0 -68 -1 -115 -141 -115 -140 -3 141 -3 141 -79 0 -80 0 0 -280z"/>
 <path d="M2700 700 l0 -280 80 0 80 0 0 280 0 280 -80 0 -80 0 0 -280z"/>
 <path d="M3770 700 l0 -280 80 0 80 0 0 105 0 105 105 0 105 0 0 -105 0 -105 80 0 80 0 0 280 0 280 -80 0 -80 0 0 -110 0 -110 -105 0 -105 0 0 110 0 110 -80 0 -80 0 0 -280z"/>
 <path d="M4620 765 l0 -215 -85 0 -85 0 0 -65 0 -65 250 0 250 0 0 65 0 65 -85 0 -85 0 0 215 0 215 -80 0 -80 0 0 -215z"/>
 </g>

</svg>